<?xml version="1.0" encoding="utf-8"?>
<!DOCTYPE svg PUBLIC "-//W3C//DTD SVG 1.0//EN" "http://www.w3.org/TR/2001/REC-SVG-20010904/DTD/svg10.dtd">
<svg version="1.0" xmlns="http://www.w3.org/2000/svg" width="1254px" height="1254px" viewBox="0 0 1254 1254" preserveAspectRatio="xMidYMid meet">
 <g fill="#fffffe">
  <path d="M0 627 l0 -627 627 0 627 0 0 627 0 627 -627 0 -627 0 0 -627z m192.39 242.96 c17.88 -5.27 31.84 -16.53 38.94 -31.47 8.08 -17.02 7.84 -13.84 8.57 -107.40 0.73 -90.01 0.61 -88.29 6.49 -92.34 2.57 -1.84 1.10 -1.96 -17.51 -1.96 -11.14 0 -20.57 0.24 -20.94 0.61 -0.37 0.37 0.73 3.18 2.20 6.37 l2.94 5.63 0 91.48 c0 78.62 -0.24 92.34 -1.96 98.58 -3.43 13.59 -11.88 24.49 -22.66 29.76 -6.49 3.06 -5.14 3.43 3.92 0.73z m168.14 -31.72 c4.04 -1.10 9.43 -2.82 12.12 -4.04 l4.90 -2.08 -14.08 0.37 c-16.41 0.61 -26.57 -1.47 -35.39 -7.23 -12.49 -7.96 -22.29 -22.17 -26.33 -38.09 -2.94 -11.27 -1.71 -43.96 1.96 -54.74 3.06 -9.18 5.02 -12.49 10.90 -18.98 l4.41 -4.78 -6.61 3.55 c-10.78 5.76 -22.53 18.37 -28.17 30.25 -10.29 21.55 -10.04 40.53 0.86 61.48 13.96 26.57 47.03 41.64 75.44 34.29z m150.50 0 c3.92 -0.98 8.94 -2.82 11.27 -3.92 4.16 -2.20 4.16 -2.20 -13.23 -2.20 l-17.51 0 -9.31 -4.65 c-16.29 -7.96 -26.94 -22.66 -31.11 -42.49 -2.20 -10.53 -1.47 -36.37 1.47 -48 1.96 -8.33 6.37 -17.39 11.14 -23.15 l3.43 -4.04 -5.51 3.06 c-2.94 1.59 -9.18 6.49 -13.72 10.78 -6.37 6 -9.55 10.16 -13.23 17.76 -9.18 18.49 -10.29 32.82 -4.29 52.05 6.98 21.80 24.86 38.70 47.51 44.82 8.45 2.20 24.37 2.33 33.06 0z m272.48 0.12 c-16.78 -4.53 -31.23 -21.31 -38.94 -45.43 -3.92 -12 -4.90 -41.64 -1.84 -53.15 2.57 -10.04 6.86 -18.49 12.49 -24.74 5.39 -6 2.69 -5.27 -7.84 2.08 -9.67 6.86 -16.41 14.82 -21.80 25.72 -4.41 8.94 -7.96 22.17 -7.96 29.88 0 11.63 7.23 30.49 15.55 40.90 11.39 13.96 35.39 26.33 51.19 26.33 l4.90 0 -5.76 -1.59z m259.37 -0.98 l8.45 -2.69 -9.80 -0.73 c-20.08 -1.35 -27.55 -10.04 -27.55 -31.84 0 -11.27 3.31 -19.23 10.78 -25.96 2.82 -2.57 4.90 -4.65 4.53 -4.65 -0.37 0 -4.53 1.47 -9.31 3.31 -11.14 4.41 -19.23 10.53 -24 18.61 -6.61 11.02 -6.49 20.08 0.49 30.37 10.04 14.70 27.31 19.72 46.41 13.59z m62.94 1.35 c6.74 -1.47 7.59 -2.45 3.31 -4.41 -1.59 -0.73 -3.92 -3.43 -5.27 -6.12 -2.08 -4.29 -2.33 -8.57 -2.94 -49.35 -0.73 -48.49 -0.73 -48.86 -8.08 -58.41 -6.12 -8.08 -19.96 -15.31 -32.45 -16.90 l-5.39 -0.73 4.90 1.84 c6.12 2.33 14.57 11.14 16.65 17.39 1.10 3.31 1.71 17.14 1.96 46.05 0.37 34.53 0.24 41.88 -1.35 45.56 -1.71 4.16 -1.71 4.41 0.61 4.41 1.47 0 2.33 0.86 2.33 2.45 0 7.59 6.61 16.04 14.45 18.37 4.53 1.35 4.29 1.35 11.27 -0.12z m-939.28 -4.04 c-0.61 -1.84 -1.22 -5.51 -1.22 -8.20 0 -4.78 0 -4.78 4.90 -4.78 5.27 0 6.49 1.35 9.31 10.41 l1.59 4.90 0 -5.14 c0.24 -12.37 -9.06 -26.70 -23.15 -35.64 -3.67 -2.33 -8.82 -5.88 -11.39 -7.96 -2.57 -1.96 -5.02 -3.18 -5.51 -2.69 -0.49 0.37 -0.86 5.88 -0.86 12 0 9.55 0.49 12.25 3.18 18 4.16 8.94 9.80 15.31 17.51 19.59 3.43 1.96 6.37 3.43 6.49 3.18 0.24 -0.24 -0.12 -1.84 -0.86 -3.67z m478.94 -7.35 c2.57 -5.88 4.78 -11.02 4.78 -11.27 0 -0.24 -1.84 -0.49 -3.92 -0.49 l-4.04 -0.12 -19.47 -43.11 c-18.86 -41.64 -19.59 -43.47 -20.08 -52.41 -0.24 -5.63 0.12 -10.41 0.86 -12 1.47 -2.57 1.47 -2.57 -18 -2.57 l-19.47 0 3.80 4.04 c3.80 4.16 8.69 14.08 34.66 71.27 7.59 16.90 16.78 36.86 20.33 44.45 l6.37 13.84 4.65 -0.37 c4.65 -0.37 4.78 -0.49 9.55 -11.27z m276.64 7.59 c-2.33 -3.80 -2.45 -6.37 -2.45 -50.82 0 -27.43 0.49 -48 1.22 -49.84 0.98 -2.57 0.86 -3.18 -0.73 -3.18 -1.71 0 -1.96 -1.59 -1.10 -12.86 0.73 -11.39 0.61 -12.86 -1.10 -12.86 -2.45 0 -24 4.78 -25.35 5.63 -0.61 0.37 0.12 2.33 1.71 4.29 l2.69 3.80 0 55.96 c0 51.07 -0.24 56.21 -2.08 59.15 l-2.20 3.31 6.49 0.49 c3.43 0.24 10.65 0.49 15.80 0.61 l9.55 0.24 -2.45 -3.92z m-80.82 -16.90 c10.16 -10.16 15.80 -20.08 18.98 -33.19 8.20 -35.02 -14.94 -70.17 -52.78 -79.97 -4.16 -1.10 -9.18 -1.96 -11.02 -1.84 -2.82 0 -2.33 0.49 2.82 2.08 16.65 5.39 30.25 22.41 37.84 47.39 3.31 10.53 3.31 42.13 0.12 52.66 -3.06 9.55 -7.23 17.88 -12.12 23.51 l-4.04 4.53 5.51 -2.94 c3.06 -1.71 9.67 -7.23 14.70 -12.25z m-442.08 -60.99 c0 -18.61 -13.10 -38.94 -30.74 -47.76 -10.04 -4.90 -11.51 -5.02 -5.14 -0.37 9.18 6.61 14.57 24.12 13.59 43.84 l-0.37 8.94 11.27 0 11.39 0 0 -4.65z m150.63 1.10 c0 -12.61 -6.74 -29.02 -15.55 -37.84 -6 -5.88 -14.33 -11.39 -19.96 -13.10 -2.82 -0.86 -2.69 -0.49 1.47 3.80 2.45 2.69 5.63 7.35 7.10 10.53 2.94 6.74 5.39 24.49 4.65 33.68 l-0.61 6.49 11.51 0 11.39 0 0 -3.55z m461.19 -28.04 c2.20 -8.33 4.78 -13.35 9.43 -18.25 4.53 -4.78 3.92 -5.02 -3.80 -1.10 -5.63 2.94 -13.47 10.16 -15.92 14.82 -2.08 3.92 3.67 12.37 7.59 11.27 0.61 -0.24 1.84 -3.18 2.69 -6.74z m-35.76 -10.16 c1.71 -2.08 3.18 -4.90 3.18 -6.25 0 -3.18 -6.37 -9.18 -10.90 -10.16 -6.37 -1.35 -19.23 2.82 -26.70 8.82 -2.69 2.20 -2.69 2.20 6.12 2.20 9.92 0 15.06 2.20 18.49 8.08 2.45 4.16 4.53 3.55 9.80 -2.69z m-276.15 -10.16 c1.10 -1.22 3.06 -2.69 4.41 -3.31 1.59 -0.61 -0.61 -0.98 -6.49 -0.98 l-8.94 -0.12 1.84 2.69 c1.10 1.47 1.96 5.27 1.96 8.33 l0.12 5.51 2.57 -4.90 c1.35 -2.69 3.43 -5.88 4.53 -7.23z m-55.84 -90.50 c12 -16.65 35.39 -35.88 56.82 -46.66 20.21 -10.04 49.35 -20.33 57.92 -20.33 l6.12 0 0 4.29 c0 3.92 -0.49 4.41 -7.59 8.33 -58.66 31.84 -68.95 38.94 -87.68 60.86 l-7.84 9.18 10.29 1.47 c21.92 3.06 47.03 1.22 60.13 -4.41 3.31 -1.47 6.98 -2.57 8.08 -2.57 1.22 0 3.80 -1.22 5.63 -2.69 1.96 -1.59 6.86 -4.78 11.02 -7.10 35.15 -19.84 60.13 -58.54 71.03 -110.21 1.71 -8.08 3.06 -15.19 3.06 -15.92 0 -0.61 -4.53 2.33 -10.16 6.61 -17.14 12.98 -30.74 18.61 -85.97 36.13 -41.15 13.10 -69.31 33.80 -87.56 64.54 -5.76 9.67 -13.59 28.04 -15.19 35.39 -0.61 2.82 0 2.20 2.82 -2.82 1.96 -3.43 6 -9.80 9.06 -14.08z m-67.97 15.19 c2.82 -0.73 2.57 -1.10 -4.29 -7.59 -14.94 -14.21 -35.88 -27.92 -61.84 -40.53 l-15.80 -7.72 0.37 -4.29 c0.37 -4.04 0.61 -4.29 5.51 -4.65 11.39 -0.86 49.47 15.06 72.01 30.13 6.74 4.41 17.27 13.10 23.39 19.23 l11.27 11.02 -2.45 -6.12 c-6.61 -17.14 -23.15 -38.21 -39.92 -50.82 -10.16 -7.59 -28.04 -16.90 -42.13 -21.80 -5.88 -2.08 -19.59 -5.76 -30.62 -8.20 -46.90 -10.41 -62.33 -16.29 -80.09 -30.74 -6.61 -5.39 -6.61 -5.39 -5.88 -2.08 1.59 6.61 8.08 24.37 12.25 33.31 13.96 30.49 42.13 59.52 72.25 74.58 15.31 7.72 39.19 14.70 56.82 16.53 7.23 0.73 26.21 0.61 29.15 -0.24z m48.37 -61.97 c1.84 -8.69 6.86 -36.25 11.27 -61.11 11.39 -64.54 15.80 -82.54 27.19 -110.21 6.25 -15.43 11.39 -25.23 21.19 -39.92 10.04 -15.06 21.80 -34.90 24.74 -41.39 4.90 -11.39 4.90 -12.25 0.73 -6.98 -13.72 16.90 -32.45 32.82 -47.39 40.29 -4.41 2.20 -13.59 5.88 -20.33 8.08 -24 7.84 -37.23 16.16 -48.25 30 -11.39 14.21 -19.47 31.96 -23.51 51.43 -4.78 22.78 1.59 57.07 16.78 89.76 6.49 13.96 32.57 58.05 33.68 56.82 0.37 -0.49 2.20 -7.96 3.92 -16.78z m55.84 -44.70 c13.35 -10.90 41.76 -40.04 53.27 -54.50 10.53 -13.23 25.35 -34.78 31.84 -46.29 l3.31 -5.88 -5.88 0.86 c-3.18 0.37 -12.12 0.12 -19.72 -0.61 -23.27 -2.33 -35.02 0.98 -49.11 14.08 -17.88 16.53 -26.70 38.33 -37.47 93.07 -2.33 11.88 -4.29 22.17 -4.29 22.90 0 0.61 4.53 -2.94 9.92 -7.84 5.51 -5.02 13.59 -12.12 18.12 -15.80z m-121.60 6.37 c-5.76 -11.39 -12.25 -30.49 -14.82 -43.60 -2.94 -15.19 -2.08 -50.82 1.71 -64.41 2.57 -9.31 8.08 -23.88 10.29 -26.57 0.73 -1.10 0.73 -1.59 -0.12 -1.59 -2.33 0 -14.21 2.57 -16.78 3.55 -1.35 0.61 -5.76 1.71 -9.80 2.45 -16.78 3.06 -37.47 18 -46.90 33.55 -4.78 7.96 -9.43 21.06 -10.53 29.64 l-0.73 6.12 3.43 -7.35 c5.51 -11.39 9.31 -15.31 15.06 -15.31 l4.78 0 0 8.33 c0 23.51 12.86 48.13 32.57 62.58 5.63 4.16 31.11 18.98 35.76 20.82 0.12 0.12 -1.59 -3.67 -3.92 -8.20z m194.35 -35.51 c10.16 -9.92 31.11 -34.29 39.55 -46.17 26.08 -36.37 48 -80.46 63.68 -128.22 l4.65 -14.45 4.90 0 c4.29 0 5.76 0.86 11.39 6.37 3.55 3.43 6.61 6.12 6.98 5.76 0.24 -0.24 -0.24 -4.90 -1.22 -10.29 -0.98 -5.39 -3.67 -21.31 -6.12 -35.51 -2.45 -14.08 -4.65 -25.96 -4.78 -26.21 -0.37 -0.37 -54.50 47.27 -54.50 48 0 0.12 5.76 0 12.86 -0.12 l12.86 -0.49 0 6.25 c0 12.74 -22.41 74.46 -39.19 107.89 -16.29 32.45 -41.27 69.80 -60.74 90.87 -2.94 3.18 -5.39 6 -5.39 6.37 0 2.20 7.96 -3.06 15.06 -10.04z m-335.91 -21.80 c-3.80 -8.82 -9.43 -28.66 -11.63 -40.66 -2.69 -15.06 -3.67 -47.03 -1.96 -62.70 3.92 -34.66 17.14 -68.09 38.45 -97.23 11.14 -15.19 35.39 -38.21 51.68 -49.11 12.98 -8.57 32.08 -18.98 34.90 -18.98 0.73 0 4.04 -1.35 7.35 -3.06 3.31 -1.71 6.74 -3.06 7.59 -3.06 0.86 0 3.18 -0.86 5.02 -1.84 1.84 -0.98 6 -2.33 9.18 -2.94 3.18 -0.61 9.67 -2.20 14.33 -3.55 13.23 -3.67 34.29 -5.63 61.23 -5.63 22.66 0 25.59 0.24 39.19 3.43 8.08 1.84 19.72 5.27 25.72 7.47 6.12 2.20 12.12 4.41 13.47 4.78 1.35 0.49 -2.45 -1.71 -8.45 -4.78 -14.33 -7.47 -35.76 -14.57 -54.01 -17.88 -12.86 -2.20 -17.76 -2.57 -38.58 -1.96 -17.76 0.37 -27.31 1.22 -37.35 3.31 -29.27 5.76 -60.25 18.74 -85.72 35.64 -18.74 12.49 -44.58 38.21 -56.82 56.70 -27.19 41.02 -40.29 87.19 -36.74 130.18 1.71 21.31 8.20 47.51 15.80 63.07 6.98 14.33 12.61 21.19 7.35 8.82z m325.01 -79.97 c6.98 -7.10 9.55 -13.35 7.84 -19.59 -1.71 -6.37 -6.61 -12.12 -12.61 -15.06 -4.90 -2.33 -5.88 -2.45 -10.65 -1.10 -10.65 3.18 -18.25 15.43 -15.55 25.10 1.71 6.12 7.84 12.61 13.96 14.82 8.33 2.94 10.53 2.45 17.02 -4.16z m-213.45 -13.10 c8.33 -4.29 13.35 -14.08 11.51 -23.27 -0.98 -5.39 -9.67 -14.57 -15.06 -15.80 -9.06 -1.96 -20.70 5.51 -23.63 15.31 -2.08 6.86 0.24 13.96 6.37 19.84 7.23 6.86 12.86 7.96 20.82 3.92z m102.25 -42.74 c8.69 -3.55 15.80 -12.37 18.86 -23.63 1.96 -7.72 -1.10 -16.78 -8.45 -24.98 -6.49 -7.35 -11.14 -9.55 -19.72 -9.55 -7.96 0 -14.21 3.18 -20.57 10.41 -6.98 7.96 -9.55 16.16 -7.72 24.61 2.57 11.02 11.76 21.06 22.41 24.37 5.39 1.71 8.69 1.35 15.19 -1.22z"/>
 </g>
 <g fill="#032555">
  <path d="M164.59 875.72 c-8.69 -1.47 -15.19 -3.67 -15.19 -5.39 0.12 -4.16 2.08 -5.02 8.57 -3.55 19.72 4.53 34.90 -1.59 44.45 -18.12 6.98 -12 6.98 -12.37 6.98 -107.40 0 -77.40 -0.24 -87.80 -1.96 -92.21 -2.33 -5.76 -7.23 -9.67 -13.35 -10.65 -2.45 -0.37 -4.16 -1.35 -3.92 -2.08 0.61 -2.08 13.10 -2.94 44.70 -3.06 26.94 -0.12 28.41 0 28.41 2.20 0 1.59 -1.22 2.45 -4.29 2.94 -5.02 0.86 -10.90 4.78 -13.23 8.57 -1.10 2.08 -1.59 23.15 -2.20 87.80 -0.73 93.56 -0.49 90.38 -8.57 107.40 -7.10 14.82 -21.06 26.21 -38.70 31.35 -7.96 2.45 -23.63 3.43 -31.72 2.20z"/>
  <path d="M484.70 843.63 c-27.55 -3.06 -49.72 -20.94 -58.05 -47.03 -15.19 -47.51 14.94 -93.44 63.43 -96.87 36.74 -2.57 63.43 22.04 63.43 58.41 l0 7.23 -49.84 0.24 -49.96 0.37 -0.37 3.18 c-0.24 1.71 0.49 7.23 1.47 12.12 4.16 19.84 14.82 34.53 31.11 42.49 9.06 4.53 9.67 4.65 22.78 4.65 16.04 -0.12 24 -2.57 32.94 -10.41 5.76 -5.02 10.65 -6.37 10.65 -2.94 0 1.10 -3.43 5.39 -7.59 9.55 -15.19 15.06 -35.88 21.68 -60.01 18.98z m38.94 -88.54 c1.10 -4.65 -1.59 -23.39 -4.41 -29.88 -8.33 -19.35 -32.33 -24.61 -48.62 -10.65 -8.45 7.23 -16.29 25.47 -16.29 38.21 l0 5.27 34.29 0 34.29 0 0.73 -2.94z"/>
  <path d="M325.26 841.80 c-23.76 -5.76 -43.96 -25.96 -50.21 -50.21 -2.20 -8.69 -2.57 -26.82 -0.61 -36.25 2.33 -11.39 10.04 -25.72 18.61 -34.29 8.69 -8.82 17.14 -14.08 29.64 -18.25 11.88 -3.92 32.21 -4.04 42.49 -0.24 10.53 3.92 20.33 11.02 26.21 18.98 7.35 10.16 10.41 18.98 11.27 32.57 l0.61 11.27 -49.84 0 -49.72 0 0 5.88 c0 13.10 7.23 30.49 16.78 40.78 11.63 12.49 24.98 17.76 42.62 16.78 11.27 -0.61 20.08 -4.04 28.53 -11.14 5.39 -4.53 9.18 -5.63 10.78 -3.18 0.37 0.73 -3.18 5.14 -8.20 10.16 -14.33 13.96 -27.80 19.23 -49.47 18.98 -6.74 0 -15.43 -0.86 -19.47 -1.84z m47.88 -87.07 c1.35 -5.76 -1.59 -24 -5.14 -31.59 -9.06 -19.10 -34.53 -22.17 -49.72 -5.88 -2.33 2.57 -5.27 6.12 -6.37 7.84 -4.16 6.86 -9.43 28.78 -7.59 31.72 0.49 0.73 13.23 1.22 34.29 1.22 l33.68 0 0.86 -3.31z"/>
  <path d="M769.05 841.80 c-9.43 -2.45 -20.21 -7.84 -28.17 -13.72 -26.33 -19.84 -34.41 -57.68 -18.98 -88.91 9.55 -19.23 26.08 -32.08 49.11 -38.09 9.55 -2.45 30.37 -2.45 40.17 0.12 26.94 6.98 46.66 26.45 52.78 52.05 2.33 10.04 2.33 25.23 0 35.27 -6 25.10 -27.43 46.78 -52.78 53.27 -9.67 2.45 -32.82 2.45 -42.13 0z m42.86 -9.80 c10.29 -5.63 16.78 -14.82 21.55 -30.49 3.18 -10.29 3.18 -35.02 0 -45.31 -7.72 -25.84 -22.04 -43.11 -39.55 -47.88 -21.43 -5.88 -40.53 8.20 -47.51 35.15 -2.94 10.90 -1.96 33.80 1.84 45.80 11.76 36.86 39.80 55.72 63.68 42.74z"/>
  <path d="M1010.79 841.55 c-7.35 -2.57 -13.23 -7.23 -18 -14.08 -4.53 -6.61 -6.12 -13.47 -5.39 -22.41 1.10 -13.84 9.43 -24.86 23.88 -31.72 7.47 -3.55 27.19 -9.18 32.21 -9.18 1.71 0 3.55 -0.49 4.29 -1.10 0.61 -0.61 5.76 -2.08 11.51 -3.31 17.51 -3.43 16.29 -2.20 15.55 -16.78 -0.86 -16.53 -2.33 -21.06 -9.31 -27.92 -11.51 -11.63 -30.49 -11.39 -41.51 0.61 -4.53 5.02 -10.04 16.65 -10.04 21.43 0 2.82 -2.82 5.27 -5.02 4.53 -0.98 -0.24 -3.31 -0.86 -5.14 -1.22 -6.61 -1.47 -10.16 -11.76 -6.49 -18.86 2.33 -4.29 10.16 -11.76 15.19 -14.21 13.59 -6.86 41.02 -10.29 55.47 -6.86 15.55 3.67 27.06 11.76 32.57 23.02 l3.43 6.98 0.61 44.70 c0.61 40.53 0.86 45.19 2.94 49.35 2.45 5.02 7.35 8.20 12.37 8.20 2.69 0 3.18 0.49 2.82 2.69 -0.61 4.16 -10.29 7.47 -22.41 7.59 -8.33 0.12 -10.53 -0.37 -14.57 -2.82 -4.78 -3.06 -9.18 -10.41 -9.31 -15.68 0 -1.59 -0.37 -2.82 -0.86 -2.82 -0.37 0 -3.92 2.94 -7.72 6.61 -7.59 7.23 -13.23 10.53 -23.15 13.47 -9.06 2.69 -25.84 2.57 -33.92 -0.24z m44.33 -13.59 c6.98 -3.18 15.19 -10.78 17.76 -16.65 1.96 -4.16 2.33 -8.20 2.33 -25.96 l0 -21.19 -2.94 0 c-4.90 0 -26.08 5.76 -33.80 9.31 -18.12 8.08 -25.72 27.68 -17.27 44.21 5.63 11.14 21.55 15.92 33.92 10.29z"/>
  <path d="M886.62 835.80 c5.63 -6.12 5.88 -6.61 6.74 -15.43 0.49 -5.02 0.61 -28.90 0.37 -53.15 -0.37 -49.23 -0.24 -48.49 -9.06 -53.03 -4.04 -2.08 -4.16 -2.33 -2.08 -4.16 2.08 -1.84 17.63 -6.12 27.31 -7.59 2.33 -0.37 6.49 -0.98 9.06 -1.35 l4.78 -0.73 -0.61 13.47 c-0.37 7.47 -0.49 13.59 -0.24 13.59 0.24 0 1.47 -2.08 2.82 -4.53 3.67 -7.23 13.10 -16.16 20.45 -19.59 9.18 -4.16 22.78 -5.14 28.66 -1.84 6.12 3.18 9.06 9.67 7.47 15.80 -1.59 5.63 -6.49 10.78 -12.25 12.74 -3.80 1.35 -4.41 1.22 -6.49 -1.47 -5.02 -6.49 -7.47 -8.45 -12.12 -9.67 -9.92 -2.69 -19.47 3.06 -24.98 14.94 l-3.06 6.49 0 43.23 c0 46.54 0.12 47.88 6.49 52.05 1.59 0.98 4.16 2.08 5.88 2.33 1.59 0.12 2.94 1.22 2.94 2.20 0 1.59 -4.04 1.84 -29.02 1.84 l-29.02 0.12 6 -6.25z"/>
  <path d="M617.20 597.36 c-1.59 -2.94 -8.69 -14.94 -15.80 -26.70 -19.84 -33.06 -28.41 -53.03 -34.41 -80.21 -3.18 -14.45 -3.92 -39.80 -1.47 -51.43 4.29 -19.72 12.25 -37.23 23.63 -51.43 11.02 -13.84 24.25 -22.17 48.25 -30 6.74 -2.20 15.92 -5.88 20.33 -8.08 18.12 -8.94 39.68 -28.78 52.66 -48.13 4.90 -7.35 7.35 -9.80 9.43 -9.92 3.31 0 3.31 0.24 0.24 10.29 -5.76 18.25 -14.94 36 -33.06 63.19 -9.80 14.70 -14.94 24.49 -21.19 39.92 -11.39 27.92 -15.68 45.31 -27.80 113.52 -9.06 51.31 -15.80 84.13 -17.14 84.13 -0.37 0 -2.08 -2.33 -3.67 -5.14z"/>
  <path d="M731.34 506.87 c33.92 -36.49 60.99 -78.99 82.42 -129.81 7.59 -17.76 25.10 -69.19 25.10 -73.48 0 -2.57 -0.24 -2.57 -16.65 -1.71 -12.61 0.73 -16.65 0.61 -16.29 -0.49 0.98 -2.69 65.27 -59.03 67.11 -58.66 1.22 0.24 2.45 4.29 4.04 13.84 1.22 7.47 4.78 28.04 7.84 45.68 3.06 17.76 5.39 32.45 5.14 32.70 -0.24 0.24 -5.63 -4.53 -12 -10.41 -6.37 -6 -12.25 -10.90 -12.86 -11.02 -0.73 0 -3.43 6.49 -6 14.45 -22.78 69.31 -55.23 124.91 -99.81 170.71 l-11.51 11.88 -12 3.80 c-6.61 2.08 -12.98 4.04 -14.21 4.53 -1.22 0.49 3.18 -4.90 9.67 -12z"/>
  <path d="M610.59 345.83 c-8.57 -2.69 -18.25 -12.61 -20.82 -21.31 -4.04 -13.35 -1.59 -25.23 6.86 -34.90 7.23 -8.20 12.37 -10.41 24.25 -10.41 5.51 0 11.63 0.73 13.84 1.71 6.25 2.57 14.82 12.98 17.39 20.94 5.63 18.25 -4.65 38.94 -21.80 44.09 -7.59 2.20 -12 2.20 -19.72 -0.12z"/>
 </g>
 <g fill="#509617">
  <path d="M954.46 942.95 c0.37 -2.20 0.73 -5.88 0.73 -8.08 l0 -4.16 7.84 0 c8.45 0 9.80 -0.73 11.14 -6.98 0.61 -3.31 1.35 -4.04 3.92 -4.04 2.94 0 3.06 0.24 2.45 5.27 -1.10 7.72 -6.49 12.25 -14.08 11.63 l-5.76 -0.37 -0.61 4.90 c-0.49 4.04 -1.10 5.02 -3.55 5.27 -2.69 0.37 -2.82 0.12 -2.08 -3.43z"/>
  <path d="M480.29 935.11 l0.37 -4.90 8.33 -0.12 c7.23 -0.24 8.20 0 8.20 1.96 0 3.18 -4.41 5.14 -9.92 4.29 -3.67 -0.61 -4.90 -0.24 -6 1.35 -0.98 1.71 -1.22 1.22 -0.98 -2.57z"/>
  <path d="M290.23 927.03 c0 -7.72 0.24 -8.57 2.45 -8.57 2.20 0 2.45 0.86 2.45 8.57 0 7.72 -0.24 8.57 -2.45 8.57 -2.20 0 -2.45 -0.86 -2.45 -8.57z"/>
  <path d="M310.44 932.91 c-1.84 -1.71 -3.43 -4.65 -3.92 -7.35 -0.61 -4.41 -0.49 -4.65 2.45 -4.65 2.45 0 3.31 0.73 3.92 3.67 0.49 2.08 1.84 4.41 3.18 5.27 3.06 1.96 3.06 5.76 0 5.76 -1.35 0 -3.92 -1.22 -5.63 -2.69z"/>
  <path d="M384.53 925.31 c0 -8.45 0.37 -10.53 1.84 -10.53 2.20 0 3.31 5.88 2.82 14.08 -0.24 4.65 -0.86 6.25 -2.45 6.49 -1.96 0.37 -2.20 -0.73 -2.20 -10.04z"/>
  <path d="M431.43 934.38 c-3.06 -1.22 -5.76 -5.51 -4.65 -7.35 1.22 -2.08 5.02 -1.35 7.47 1.35 1.59 1.71 3.31 2.33 5.76 1.96 3.92 -0.49 6.12 2.33 3.18 4.16 -2.20 1.35 -8.20 1.22 -11.76 -0.12z"/>
  <path d="M553.52 933.40 c0 -1.35 0.86 -3.06 1.84 -3.92 0.98 -0.86 2.08 -3.31 2.57 -5.63 0.61 -3.31 1.35 -4.16 3.67 -4.16 2.45 0 2.94 0.61 2.94 3.55 0 1.84 -1.22 5.27 -2.82 7.59 -3.18 4.78 -8.20 6.37 -8.20 2.57z"/>
  <path d="M705.38 928.25 c0 -6.98 0.12 -7.35 3.06 -7.35 2.94 0 3.06 0.37 3.06 7.35 0 6.98 -0.12 7.35 -3.06 7.35 -2.94 0 -3.06 -0.37 -3.06 -7.35z"/>
  <path d="M802.12 922.13 c0 -12.61 0.12 -13.47 2.45 -13.47 2.33 0 2.45 0.86 2.45 13.47 0 12.61 -0.12 13.47 -2.45 13.47 -2.33 0 -2.45 -0.86 -2.45 -13.47z"/>
  <path d="M816.81 927.64 c0 -7.10 0.24 -7.96 2.45 -7.96 2.20 0 2.45 0.86 2.45 7.96 0 7.10 -0.24 7.96 -2.45 7.96 -2.20 0 -2.45 -0.86 -2.45 -7.96z"/>
  <path d="M940.26 924.95 c-0.37 -10.16 -0.49 -10.78 -3.06 -11.14 -2.08 -0.37 -2.82 -1.22 -2.82 -3.43 0 -2.57 0.61 -2.94 4.04 -2.94 7.23 0 8.45 2.69 7.47 16.41 -0.73 10.29 -1.10 11.76 -3.06 11.76 -1.96 0 -2.33 -1.35 -2.57 -10.65z"/>
  <path d="M362.73 932.91 c-2.20 -2.20 -1.96 -10.78 0.37 -10.78 0.98 0 1.84 0.98 1.96 2.20 0 1.22 0.73 0.49 1.84 -1.84 1.10 -2.69 2.57 -4.04 4.16 -4.04 2.94 0 2.94 0.86 0.49 9.31 -1.59 5.39 -2.33 6.61 -4.65 6.61 -1.47 0 -3.31 -0.61 -4.16 -1.47z"/>
  <path d="M906.46 920.66 c0.37 -11.14 0.61 -12.61 2.69 -12.98 1.22 -0.24 2.69 0.24 3.31 1.10 0.73 1.35 1.35 1.35 2.57 0.12 2.20 -2.20 3.43 -1.84 3.43 0.98 0 1.22 -1.10 2.94 -2.45 3.67 -1.71 0.98 -2.45 2.57 -2.45 5.51 0 2.33 -0.49 4.29 -1.22 4.29 -0.61 0 -1.22 2.20 -1.22 4.90 0 4.16 -0.37 4.90 -2.45 4.90 -2.45 0 -2.57 -0.61 -2.20 -12.49z"/>
  <path d="M772.73 920.78 c0 -7.59 0.24 -8.57 2.20 -8.20 1.71 0.37 2.20 1.96 2.45 8.69 0.37 7.59 0.12 8.20 -2.20 8.20 -2.20 0 -2.45 -0.73 -2.45 -8.69z"/>
  <path d="M275.54 922.87 c0 -1.47 -1.22 -1.96 -4.90 -1.96 -2.69 0 -4.90 -0.49 -4.90 -0.98 0 -2.45 3.43 -3.92 9.55 -3.92 l6.49 0 -0.37 4.04 c-0.24 2.94 -0.98 4.04 -3.06 4.29 -1.96 0.24 -2.82 -0.24 -2.82 -1.47z"/>
  <path d="M589.77 918.33 c-0.49 -2.69 -1.71 -4.16 -4.41 -5.14 -5.27 -1.96 -5.02 -5.76 0.49 -5.76 5.14 0 10.53 5.63 10.53 11.14 0 2.94 -0.49 3.55 -2.94 3.55 -2.20 0 -3.06 -0.86 -3.67 -3.80z"/>
  <path d="M338.85 915.15 c-1.96 -6.61 -1.71 -7.72 1.71 -7.72 2.45 0 3.80 2.33 5.39 9.55 0.73 3.67 0.61 3.92 -2.33 3.92 -2.69 0 -3.31 -0.86 -4.78 -5.76z"/>
  <path d="M1032.59 914.78 c-0.86 -1.35 -2.33 -2.45 -3.31 -2.45 -0.98 0 -1.84 -1.10 -1.84 -2.45 0 -1.71 0.86 -2.45 2.94 -2.45 3.31 0 9.67 5.51 8.94 7.72 -0.73 2.45 -5.02 2.33 -6.74 -0.37z"/>
  <path d="M177.57 849.14 c0 -7.84 -2.45 -18 -5.39 -21.92 -2.82 -3.92 -3.43 -1.35 -1.35 6 1.10 3.80 1.84 8.20 1.59 10.04 l-0.37 3.18 -9.92 -5.02 c-6.12 -3.06 -11.88 -6.98 -14.57 -10.04 -9.18 -10.16 -13.72 -25.96 -11.51 -40.53 2.33 -16.16 4.53 -18.86 9.31 -11.51 1.47 2.33 7.23 7.23 12.86 10.90 19.23 12.61 26.70 24.12 26.70 41.15 0 8.82 -2.82 20.45 -5.63 23.39 -1.47 1.47 -1.71 0.73 -1.71 -5.63z"/>
  <path d="M620.63 827.59 c-3.80 -8.33 -12.61 -27.68 -19.72 -43.23 -21.68 -47.88 -30.37 -66.01 -33.43 -70.05 -1.59 -2.08 -5.39 -4.78 -8.45 -5.88 -3.06 -1.22 -5.51 -2.82 -5.51 -3.67 0 -2.33 9.92 -3.06 39.55 -3.06 l26.70 0 -0.37 2.69 c-0.24 2.20 -1.47 2.94 -5.51 3.80 -3.31 0.61 -5.76 1.96 -6.61 3.55 -3.06 5.63 -0.49 13.35 19.23 56.94 10.65 23.76 19.84 43.11 20.21 43.23 1.10 0 39.80 -88.05 40.90 -92.83 1.22 -5.76 -1.71 -9.67 -8.57 -11.39 -4.04 -0.98 -5.51 -1.96 -5.51 -3.67 0 -2.20 1.22 -2.33 22.17 -2.33 21.80 0 22.04 0 21.68 2.57 -0.24 1.84 -1.96 3.06 -5.88 4.41 -9.55 3.18 -10.04 4.04 -24.49 36.86 -4.53 10.53 -16.04 36.62 -25.59 57.80 l-17.14 38.58 -8.33 0.37 -8.45 0.37 -6.86 -15.06z"/>
  <path d="M623.82 657 c1.47 -20.94 7.84 -40.78 19.23 -60.01 18.12 -30.49 46.29 -51.31 87.44 -64.41 37.23 -11.76 53.27 -17.51 64.05 -22.78 11.76 -5.76 27.43 -16.65 33.80 -23.51 2.08 -2.08 4.41 -3.80 5.39 -3.80 2.33 0 1.35 10.78 -2.94 30.86 -10.78 51.43 -35.76 90.13 -70.90 109.97 -4.16 2.33 -9.06 5.51 -11.02 7.10 -1.84 1.47 -4.41 2.69 -5.63 2.69 -1.10 0 -4.78 1.10 -8.08 2.57 -8.82 3.80 -23.76 6 -40.78 6 -13.23 0 -38.45 -2.57 -39.92 -3.92 -0.86 -0.98 7.96 -12.86 16.65 -22.17 12.37 -13.35 30.62 -26.45 54.13 -39.31 36.86 -20.08 36.13 -19.59 33.31 -20.08 -4.41 -0.61 -37.72 11.63 -54.74 20.08 -22.29 11.14 -45.92 30.98 -58.29 48.74 -6.74 9.80 -16.16 27.80 -18.49 35.64 -2.82 9.31 -4.04 7.96 -3.18 -3.67z"/>
  <path d="M609.12 643.29 c-9.06 -12.86 -27.68 -30.74 -41.51 -39.92 -14.82 -9.80 -35.76 -19.96 -53.64 -25.96 -20.94 -7.10 -20.33 -4.41 1.59 6.61 28.17 14.08 48.13 27.80 63.68 43.47 6.37 6.49 7.59 8.33 6.37 9.55 -2.57 2.57 -43.47 2.08 -56.82 -0.61 -46.90 -9.43 -83.89 -35.51 -108.62 -76.54 -8.94 -14.94 -18.37 -40.29 -21.43 -57.56 -1.10 -6.74 2.08 -6.37 10.04 1.22 18.37 17.39 34.17 24.25 80.33 34.66 28.04 6.25 41.64 10.65 56.45 18.12 35.39 17.76 60.13 48.25 67.97 84.13 1.35 5.63 2.08 10.53 1.96 10.78 -0.24 0.12 -3.06 -3.43 -6.37 -7.96z"/>
  <path d="M567.97 552.30 c-4.53 -3.18 -14.70 -9.18 -22.66 -13.35 -18.25 -9.55 -29.02 -17.39 -36.98 -27.06 -11.63 -13.96 -18.49 -32.33 -18.49 -49.23 0 -4.53 -0.49 -8.33 -1.10 -8.33 -3.31 0 -11.51 13.59 -15.31 25.47 -3.06 8.94 -5.14 8.33 -6.12 -1.96 -1.47 -15.06 2.82 -31.96 11.63 -45.68 9.43 -14.82 29.64 -28.90 45.80 -31.84 4.04 -0.73 8.45 -1.84 9.80 -2.45 2.94 -1.10 25.59 -6 28.17 -6 1.35 0 0.61 2.45 -2.94 9.55 -10.90 21.43 -13.72 32.70 -14.57 56.70 -0.98 31.23 5.63 54.37 25.35 88.54 3.55 6 6.12 11.02 6 11.14 -0.24 0.12 -4.04 -2.33 -8.57 -5.51z"/>
  <path d="M427.88 499.89 c-14.08 -11.14 -22.41 -24.12 -29.15 -45.43 -13.47 -42.74 -13.35 -86.21 0.61 -129.32 4.90 -15.19 16.41 -38.09 26.94 -54.01 12.25 -18.49 38.09 -44.21 56.82 -56.70 25.47 -16.90 56.33 -29.76 85.72 -35.76 10.65 -2.08 19.23 -2.82 41.02 -3.18 24.49 -0.61 29.27 -0.37 42.25 1.96 42.37 7.59 83.27 29.39 112.05 59.64 11.39 12 30.13 35.64 29.15 36.62 -0.24 0.37 -2.57 -2.08 -5.02 -5.27 -5.76 -7.72 -26.33 -27.55 -35.76 -34.66 -24.25 -18.25 -52.29 -30.98 -84.62 -38.58 -12.98 -3.06 -16.90 -3.43 -35.39 -3.43 -23.63 0 -44.94 2.08 -57.56 5.63 -4.65 1.35 -11.14 2.94 -14.33 3.55 -3.18 0.61 -7.35 1.96 -9.18 2.94 -1.84 0.98 -4.16 1.84 -5.02 1.84 -0.86 0 -4.29 1.35 -7.59 3.06 -3.31 1.71 -6.61 3.06 -7.35 3.06 -0.73 0 -5.76 2.20 -11.14 4.90 -34.53 17.02 -68.58 48.98 -88.54 83.15 -6.98 11.88 -16.41 34.66 -20.21 48.86 -12 45.07 -6.12 97.36 16.04 140.95 3.92 7.72 6.86 14.21 6.61 14.45 -0.24 0.24 -3.06 -1.71 -6.37 -4.29z"/>
  <path d="M512.74 389.43 c-9.92 -3.06 -16.65 -12.86 -16.78 -24.37 0 -13.35 7.96 -22.66 20.57 -24.25 9.67 -1.10 14.45 0.37 20.33 6.25 18.49 18.37 0.49 49.72 -24.12 42.37z"/>
 </g>
 <g fill="#037b8b">
  <path d="M209.78 668.02 c0 -2.69 0.24 -3.67 0.49 -2.08 0.24 1.47 0.24 3.67 0 4.90 -0.37 1.10 -0.61 -0.12 -0.49 -2.82z"/>
  <path d="M645 564.30 c14.08 -84.13 23.88 -113.40 44.58 -132.50 14.33 -13.23 27.43 -16.78 53.27 -14.45 10.04 0.98 16.29 0.98 20.08 0.12 3.06 -0.73 7.35 -1.59 9.67 -1.96 l4.16 -0.73 -5.76 10.90 c-7.84 14.57 -21.55 34.90 -34.53 51.31 -12.25 15.31 -40.04 43.47 -56.09 56.82 -5.88 5.02 -16.41 14.45 -23.27 21.06 -6.74 6.61 -12.49 12.12 -12.49 12.12 -0.12 0 0 -1.22 0.37 -2.69z"/>
  <path d="M720.68 404.73 c-19.35 -6.86 -20.33 -37.47 -1.35 -46.05 14.94 -6.74 30.74 1.35 34.04 17.39 1.96 9.55 -0.12 15.80 -7.84 23.88 -6.12 6.49 -6.37 6.61 -13.10 6.61 -3.80 -0.12 -9.06 -0.86 -11.76 -1.84z"/>
 </g>
 <g fill="#458616">
  <path d="M433.14 945.77 c-1.59 -1.47 1.96 -4.04 5.76 -4.04 4.41 0 6.86 -1.84 6.86 -5.27 0 -1.84 -0.73 -2.08 -3.67 -1.59 -2.08 0.24 -3.43 0.12 -3.18 -0.24 0.24 -0.49 -1.35 -1.84 -3.67 -2.94 -2.57 -1.35 -4.41 -1.71 -4.90 -0.86 -0.37 0.73 0.37 1.59 1.84 1.96 1.47 0.37 2.57 1.10 2.57 1.71 0 2.45 -5.76 -1.35 -7.59 -5.14 -5.51 -10.65 0.37 -21.92 11.39 -21.92 2.08 0 4.78 0.61 6.12 1.22 1.59 0.86 2.33 0.86 2.33 0 0 -0.61 1.35 -1.22 3.06 -1.22 l3.06 0 0 13.23 c0 14.94 -1.35 21.43 -5.27 24.12 -2.57 1.84 -13.23 2.57 -14.70 0.98z m10.41 -17.14 c3.31 -2.94 3.06 -11.88 -0.49 -14.33 -3.67 -2.57 -6.25 -2.45 -8.94 0.49 -6.86 7.59 1.96 20.57 9.43 13.84z"/>
  <path d="M474.66 942.83 c-0.37 -2.08 -0.73 -10.90 -0.73 -19.59 l0 -15.80 2.94 0 c1.59 0 3.18 0.73 3.55 1.59 0.49 1.22 0.86 1.22 2.20 0 1.96 -1.96 10.16 -2.08 13.59 -0.24 6.25 3.31 7.84 17.02 2.69 23.02 -2.82 3.43 -7.84 5.51 -6 2.57 0.49 -0.73 -0.98 -1.22 -3.43 -1.22 -5.27 0 -8.20 3.18 -8.20 8.94 0 3.92 -0.37 4.53 -2.94 4.53 -2.20 0 -3.06 -0.86 -3.67 -3.80z m19.35 -14.82 c2.69 -3.80 2.45 -8.57 -0.61 -12.49 -2.82 -3.67 -5.51 -4.04 -9.43 -1.22 -3.31 2.33 -3.80 11.39 -0.73 14.45 2.82 2.94 8.57 2.45 10.78 -0.73z"/>
  <path d="M569.44 927.03 l0 -19.59 2.94 0 c1.59 0 3.18 0.73 3.55 1.59 0.49 1.22 0.86 1.22 2.20 0 0.86 -0.86 3.92 -1.59 6.74 -1.59 4.29 0 5.76 0.61 8.33 3.80 4.41 5.27 4.53 16.53 0.24 21.43 -3.06 3.55 -9.31 4.65 -15.06 2.57 -2.69 -0.98 -2.82 -0.73 -2.82 5.14 0 5.88 -0.24 6.25 -3.06 6.25 l-3.06 0 0 -19.59z m19.59 1.35 c0.61 -1.35 1.22 -4.78 1.22 -7.59 0 -4.41 0.24 -4.90 1.84 -3.55 1.47 1.22 1.84 1.22 1.84 -0.24 0 -2.94 -3.80 -7.10 -6.49 -7.10 -2.20 0 -2.33 0.24 -0.86 1.22 0.98 0.61 1.35 1.22 0.61 1.35 -0.61 0.12 -2.08 0.24 -3.06 0.37 -0.98 0.24 -2.69 0.37 -3.80 0.49 -2.20 0.24 -4.78 5.14 -4.78 9.18 0 1.59 0.86 4.04 1.96 5.51 2.45 3.55 9.67 3.80 11.51 0.37z"/>
  <path d="M850.12 944.66 c-4.16 -2.94 -2.08 -4.41 5.14 -3.55 6.61 0.86 7.96 0.24 9.67 -4.65 0.73 -1.84 0.12 -1.96 -5.63 -1.35 -5.76 0.73 -6.98 0.37 -10.04 -2.20 -2.94 -2.57 -3.55 -4.16 -4.04 -10.53 -0.49 -7.10 -0.37 -7.72 3.18 -11.27 3.06 -2.94 4.78 -3.67 9.06 -3.67 2.94 0 6 0.61 6.74 1.35 0.98 0.98 1.59 0.98 2.08 0 0.49 -0.73 1.96 -1.35 3.31 -1.35 2.20 0 2.33 0.98 2.33 16.04 l0 16.04 -3.55 3.55 c-3.06 2.94 -4.65 3.55 -9.55 3.55 -3.43 0 -7.10 -0.86 -8.69 -1.96z m13.59 -17.88 c5.27 -6.98 -0.86 -16.90 -8.20 -13.47 -5.27 2.33 -5.39 12.98 -0.24 16.53 2.33 1.59 5.88 0.37 8.45 -3.06z"/>
  <path d="M953.36 945.15 c-0.37 -0.98 -0.49 -9.67 -0.37 -19.35 0.37 -17.39 0.49 -17.76 3.18 -18.12 1.47 -0.24 2.69 0.12 2.69 0.86 0 1.71 4.53 1.71 5.51 0.12 0.37 -0.61 2.69 -1.22 5.02 -1.22 11.27 0 15.80 18.37 6.49 26.21 -3.80 3.18 -10.04 4.29 -11.51 1.96 -0.37 -0.61 -1.84 -1.22 -3.06 -1.22 -1.84 0 -2.33 1.10 -2.69 5.76 -0.24 4.41 -0.86 6 -2.57 6.25 -1.10 0.24 -2.33 -0.37 -2.69 -1.22z m22.29 -13.47 c2.94 -2.69 3.67 -6.37 1.59 -7.72 -0.61 -0.37 -1.47 0.73 -1.96 2.45 -0.37 1.71 -2.20 4.16 -3.80 5.51 -2.69 2.08 -2.82 2.45 -0.86 2.45 1.22 0 3.43 -1.22 5.02 -2.69z m-3.31 -2.82 c0.86 -0.98 1.59 -4.04 1.71 -6.61 0.12 -8.20 -6.49 -12.61 -11.76 -7.84 -2.82 2.57 -3.06 11.63 -0.24 14.33 2.45 2.45 8.33 2.57 10.29 0.12z"/>
  <path d="M645.37 942.58 c0 -0.86 0.61 -2.20 1.47 -3.06 1.10 -1.10 1.10 -1.84 0 -2.94 -0.86 -0.86 -1.47 -3.06 -1.47 -4.90 0 -2.94 0.49 -3.43 3.67 -3.43 3.43 0 3.67 0.37 3.67 4.29 0 5.27 -3.06 11.63 -5.51 11.63 -0.98 0 -1.84 -0.73 -1.84 -1.59z"/>
  <path d="M255.58 934.13 c-8.33 -5.02 -11.63 -16.41 -7.47 -26.70 2.94 -7.35 7.23 -9.80 17.14 -9.80 7.35 0 8.69 0.37 11.76 3.31 3.80 3.67 4.53 7.72 1.35 7.72 -1.10 0 -3.55 -1.47 -5.39 -3.18 -5.51 -5.27 -15.06 -3.80 -18.12 2.82 -1.96 4.16 -1.71 12.12 0.49 16.29 4.53 8.69 15.92 8.33 19.72 -0.73 0.98 -2.33 2.57 -4.16 3.43 -4.16 0.98 0 2.08 -0.73 2.33 -1.47 0.37 -0.86 0.73 2.57 0.73 7.72 l0.12 9.31 -5.14 0.12 c-2.94 0 -7.72 0.37 -10.78 0.86 -4.41 0.49 -6.49 0.12 -10.16 -2.08z"/>
  <path d="M312.52 934.38 c-4.53 -2.82 -6.37 -6.61 -6.37 -13.59 0 -6.49 1.71 -9.55 6.74 -11.63 11.51 -4.78 21.43 0.86 21.43 12.12 0 12.49 -11.51 19.35 -21.80 13.10z m0.37 -6.25 c-1.10 -2.08 -2.33 -3.43 -2.69 -3.06 -0.73 0.73 2.82 6.86 3.92 6.86 0.37 0 -0.24 -1.71 -1.22 -3.80z m13.59 -1.71 c3.18 -7.72 -0.98 -15.06 -7.84 -13.47 -4.41 0.86 -7.10 6.25 -5.76 11.27 1.22 5.02 2.94 6.49 7.59 6.49 3.55 0 4.41 -0.61 6 -4.29z"/>
  <path d="M512.38 934.50 c-11.76 -7.23 -6.74 -27.06 6.98 -27.06 2.69 0 6 0.61 7.35 1.22 2.94 1.59 6 7.47 6 11.63 0 3.06 -0.12 3.06 -9.18 3.06 -7.35 0 -9.43 0.37 -10.04 1.96 -1.84 4.78 7.35 7.59 11.76 3.67 2.33 -2.08 7.47 -2.69 7.47 -0.86 0 0.61 -1.96 2.82 -4.29 4.90 -5.14 4.41 -10.41 4.90 -16.04 1.47z m12.74 -18.74 c-1.10 -1.59 -3.06 -2.94 -4.41 -3.18 -3.31 -0.49 -7.59 1.84 -7.59 4.04 0 1.35 1.71 1.84 6.86 1.84 6.86 0 6.86 0 5.14 -2.69z"/>
  <path d="M542.75 934.38 c-4.53 -2.82 -6.37 -6.61 -6.37 -13.72 0 -3.92 0.86 -5.76 4.16 -9.06 3.55 -3.55 5.02 -4.16 9.80 -4.16 6.86 0 11.14 2.57 12.86 7.59 5.27 15.19 -7.47 27.19 -20.45 19.35z m18.12 -4.78 c0.61 -1.35 0.86 -3.31 0.37 -4.41 -0.61 -1.71 -1.10 -1.22 -2.33 1.84 -2.08 4.65 -2.08 4.90 -0.49 4.90 0.61 0 1.71 -1.10 2.45 -2.33z m-4.78 -0.86 c2.45 -2.94 2.08 -10.90 -0.61 -13.84 -3.06 -3.43 -6.25 -3.18 -10.16 0.61 -2.57 2.57 -2.94 3.92 -2.45 7.47 0.37 2.33 1.35 5.02 2.20 6 1.96 2.33 8.94 2.20 11.02 -0.24z"/>
  <path d="M620.02 934.38 c-7.84 -4.65 -8.20 -18.61 -0.73 -24.37 3.43 -2.82 11.14 -3.43 15.19 -1.35 2.94 1.59 6 7.47 6 11.63 0 2.94 -0.24 3.06 -8.20 3.06 -9.67 0 -12.61 1.35 -10.65 4.53 1.59 2.57 8.69 3.67 10.65 1.71 1.59 -1.59 6.98 -1.84 6.98 -0.37 0 0.61 -1.59 2.45 -3.43 4.29 -4.16 4.04 -10.16 4.41 -15.80 0.86z m12.86 -18.61 c-2.33 -3.55 -6.61 -4.16 -9.67 -1.47 -3.67 3.31 -2.82 4.16 4.53 4.16 6.86 0 6.86 0 5.14 -2.69z"/>
  <path d="M680.88 934.74 c-4.29 -2.94 -5.88 -5.27 -6.74 -9.92 -0.98 -5.39 1.22 -11.88 5.14 -14.94 4.65 -3.67 14.21 -3.43 18.12 0.61 1.71 1.59 3.06 3.80 3.06 4.90 0 2.69 -5.27 2.33 -7.96 -0.61 -4.78 -5.27 -11.63 -0.98 -11.63 7.10 0 3.06 0.86 5.51 2.20 6.74 2.82 2.57 8.69 2.69 9.55 0.24 0.86 -2.08 7.84 -2.57 7.84 -0.49 0 0.73 -1.59 2.94 -3.55 4.90 -4.29 4.16 -11.14 4.78 -16.04 1.47z"/>
  <path d="M730.36 935.60 c-7.10 -2.82 -10.16 -13.96 -6 -21.92 1.96 -3.92 4.78 -5.02 13.59 -5.02 5.51 0 6.61 0.49 8.45 3.18 1.10 1.71 2.33 5.02 2.69 7.35 l0.73 4.16 -9.92 0 c-5.39 0 -10.29 0.49 -10.65 1.22 -0.98 1.71 4.90 7.35 7.72 7.35 1.22 0 3.31 -1.10 4.53 -2.45 2.33 -2.57 6.12 -3.31 7.23 -1.35 0.37 0.61 -0.98 2.82 -3.18 4.90 -4.04 3.92 -9.55 4.90 -15.19 2.57z m11.76 -19.72 c-1.10 -1.96 -2.33 -2.45 -6.49 -2.08 -3.67 0.24 -5.27 0.98 -5.51 2.57 -0.37 1.71 0.61 2.08 6.49 2.08 6.49 0 6.74 -0.12 5.51 -2.57z"/>
  <path d="M757.05 935.60 c-3.18 -1.35 -5.51 -6.61 -4.41 -10.04 0.98 -3.31 5.14 -5.51 11.88 -6.49 5.02 -0.61 5.76 -1.10 5.76 -3.80 0 -2.45 -0.61 -2.94 -3.55 -2.94 -1.96 0 -4.16 0.86 -5.02 1.84 -2.33 2.82 -7.35 2.33 -7.35 -0.49 0 -3.80 4.65 -6.25 11.76 -6.25 8.69 0 10.41 2.08 10.78 13.96 0.24 5.51 0.98 10.04 1.96 11.14 1.47 1.71 1.35 2.20 -0.12 3.18 -2.20 1.35 -18 1.35 -21.68 -0.12z m12.49 -6.37 c2.82 -3.92 2.45 -5.88 -0.98 -5.88 -4.41 0 -9.31 2.08 -9.31 4.04 0 4.78 7.35 6.12 10.29 1.84z"/>
  <path d="M788.65 934.62 c-2.45 -1.96 -2.94 -3.67 -3.43 -12.25 -0.37 -7.47 -0.98 -10.04 -2.20 -10.04 -0.98 0 -1.71 -1.10 -1.71 -2.45 0 -1.35 0.86 -2.45 1.84 -2.45 1.10 0 1.84 -1.10 1.84 -2.94 0 -1.59 0.86 -3.55 1.84 -4.41 2.82 -2.33 5.51 -0.49 5.51 3.67 0 2.82 0.49 3.67 2.45 3.67 3.31 0 3.31 4.53 0 5.51 -2.33 0.73 -2.57 1.71 -2.20 8.94 0.37 7.47 0.61 8.20 3.18 8.57 2.08 0.37 2.69 1.10 2.45 3.06 -0.49 3.55 -5.76 4.16 -9.55 1.10z"/>
  <path d="M988.38 935.36 c-1.71 -0.86 -3.55 -3.18 -4.16 -5.02 -1.71 -5.39 1.35 -8.82 9.80 -10.90 5.63 -1.35 7.10 -2.20 7.10 -4.04 0 -3.18 -4.53 -3.92 -8.20 -1.35 -3.43 2.45 -7.10 2.57 -7.10 0.37 0 -3.31 4.90 -6.12 11.39 -6.74 9.06 -0.73 11.02 1.59 11.14 13.84 0.12 5.39 0.73 9.67 1.71 10.65 2.69 2.69 1.59 3.55 -4.29 3.43 -3.31 -0.12 -7.84 0.12 -10.16 0.61 -2.57 0.37 -5.51 0 -7.23 -0.86z m10.04 -4.53 c1.84 -0.73 3.18 -2.45 3.55 -4.41 0.61 -3.06 0.49 -3.18 -4.29 -2.82 -6.12 0.49 -8.82 3.92 -5.27 6.61 2.82 2.08 2.33 1.96 6 0.61z"/>
  <path d="M1018.88 933.52 c-6.86 -6.25 -7.10 -18.37 -0.37 -23.63 4.65 -3.67 13.72 -3.43 18 0.61 1.84 1.71 3.18 3.80 2.82 4.65 -0.86 2.57 -4.65 2.45 -6.49 -0.24 -2.45 -3.55 -8.33 -3.43 -10.78 0.12 -4.41 6.25 -1.10 15.68 5.39 15.68 2.33 0 4.04 -0.86 4.90 -2.45 1.59 -3.06 7.35 -3.43 7.35 -0.49 0 1.10 -1.71 3.55 -3.80 5.51 -5.14 4.78 -11.76 4.90 -17.02 0.24z m16.65 -21.92 c-3.67 -2.57 -5.51 -1.96 -1.96 0.73 1.71 1.22 3.31 1.96 3.67 1.59 0.37 -0.24 -0.49 -1.35 -1.71 -2.33z"/>
  <path d="M1051.33 935.97 c-4.29 -0.98 -5.51 -4.04 -5.51 -14.08 0 -8.69 -0.24 -9.55 -2.45 -9.55 -1.59 0 -2.45 -0.86 -2.45 -2.45 0 -1.59 0.86 -2.45 2.45 -2.45 1.96 0 2.45 -0.86 2.45 -4.29 0 -3.80 0.37 -4.29 3.06 -4.29 2.69 0 3.06 0.49 3.06 4.29 0 3.80 0.37 4.29 3.06 4.29 4.04 0 4.29 4.53 0.37 5.14 -2.57 0.37 -2.82 0.98 -2.82 8.94 0 8.08 0.12 8.57 2.82 8.94 2.08 0.37 2.69 1.10 2.45 3.06 -0.37 2.82 -2.33 3.43 -6.49 2.45z"/>
  <path d="M289.25 922.50 l0.37 -13.23 7.72 -0.24 c6.49 -0.12 7.72 0.12 7.35 1.84 -0.24 0.98 -2.08 2.33 -4.29 2.94 -3.31 0.86 -4.16 1.84 -5.39 6.12 -0.73 2.82 -1.10 7.47 -0.86 10.41 0.37 4.78 0.12 5.27 -2.45 5.27 -2.69 0 -2.82 -0.12 -2.45 -13.10z"/>
  <path d="M344.73 934.13 c-1.47 -4.04 -5.51 -17.63 -5.51 -18.49 0 -0.49 0.98 -0.37 2.20 0.24 1.10 0.61 2.69 1.22 3.31 1.35 0.73 0.12 1.84 2.20 2.57 4.65 1.47 5.02 1.71 4.78 4.90 -6.86 1.96 -7.10 2.33 -7.72 5.14 -7.35 2.82 0.37 3.43 1.35 5.76 10.16 1.35 5.39 2.94 10.53 3.43 11.39 1.59 2.45 3.31 0.49 3.31 -3.80 0 -3.67 -0.12 -3.67 -1.96 -1.35 -1.84 2.33 -1.96 2.33 -1.10 -0.12 0.37 -1.35 1.59 -5.63 2.69 -9.43 1.71 -6.12 2.45 -7.10 4.90 -7.10 1.47 0 2.82 0.37 2.82 0.98 0.12 0.49 -1.71 6.74 -3.92 14.08 -3.80 12.37 -4.16 13.10 -7.35 13.10 -2.94 0 -3.43 -0.73 -5.27 -6.74 -0.98 -3.80 -2.57 -6.74 -3.55 -6.74 -0.86 0 -2.20 2.82 -3.06 6.74 -1.47 6.37 -1.71 6.74 -5.14 6.74 -1.96 0 -3.92 -0.73 -4.16 -1.47z"/>
  <path d="M382.08 921.52 l0 -14.08 3.06 0 3.06 0 0 14.08 0 14.08 -3.06 0 -3.06 0 0 -14.08z"/>
  <path d="M395.55 922.01 l0 -13.59 5.39 0.73 c3.31 0.49 5.76 0.37 6.25 -0.49 0.86 -1.35 6.74 -1.59 8.69 -0.24 2.94 1.96 4.16 6.74 4.16 16.65 0 10.41 0 10.53 -3.06 10.53 -2.94 0 -3.06 -0.24 -3.06 -8.20 0 -12.25 -0.73 -13.84 -5.63 -13.84 -5.39 0 -6.61 2.57 -6.61 13.35 0 8.45 -0.12 8.69 -3.06 8.69 l-3.06 0 0 -13.59z"/>
  <path d="M602.51 916.62 l0 -18.98 3.06 0 3.06 0 0 18.98 0 18.98 -3.06 0 -3.06 0 0 -18.98z"/>
  <path d="M705.38 922.25 l0 -13.23 7.96 0 c6.86 0 7.96 0.24 7.72 1.96 -0.24 1.10 -1.59 2.08 -3.18 2.33 -3.67 0.49 -6.37 4.78 -6.37 10.04 0 3.18 -0.37 3.80 -1.22 2.45 -1.10 -1.59 -1.22 -1.59 -1.22 0 0 1.59 -0.12 1.59 -1.22 0 -0.86 -1.35 -1.22 -0.49 -1.22 3.31 0 4.29 0.37 5.14 2.82 5.63 2.33 0.49 2.20 0.49 -0.61 0.73 l-3.43 0.12 0 -13.35z"/>
  <path d="M802.73 921.52 c0 -13.84 0 -14.08 2.82 -14.08 2.69 0 2.69 0.24 2.69 14.08 0 13.84 0 14.08 -2.69 14.08 -2.82 0 -2.82 -0.24 -2.82 -14.08z"/>
  <path d="M815.59 921.52 c0 -13.10 0.12 -14.08 2.33 -14.08 1.35 0 2.57 0.49 2.82 1.10 0.24 0.73 2.33 0.61 5.39 -0.12 6.37 -1.71 10.78 -0.61 12.49 3.31 0.86 1.71 1.47 7.84 1.47 13.47 l0 10.41 -3.31 0 -3.43 0 0 -9.80 c0 -11.14 -1.71 -14.21 -7.23 -12.74 -3.80 0.86 -4.90 4.04 -5.02 14.82 0 7.10 -0.24 7.72 -2.69 7.72 -2.82 0 -2.82 -0.24 -2.82 -14.08z"/>
  <path d="M893.96 921.52 l0 -14.08 3.06 0 3.06 0 0 14.08 0 14.08 -3.06 0 -3.06 0 0 -14.08z"/>
  <path d="M906.70 931.07 c0.37 -2.57 0.73 -6.49 0.73 -8.69 0 -2.45 0.49 -3.80 1.22 -3.31 0.73 0.37 1.22 -0.12 1.22 -1.22 0 -1.10 1.47 -3.92 3.43 -6.25 2.69 -3.31 4.16 -4.16 7.72 -4.16 2.57 0 5.14 0.86 6 1.84 1.47 1.71 1.84 1.71 3.67 0 2.94 -2.57 11.39 -2.33 13.84 0.37 1.59 1.84 2.08 4.78 2.08 14.08 0 11.51 -0.12 11.88 -2.69 11.88 -2.57 0 -2.82 -0.49 -2.45 -5.76 0.24 -3.31 -0.12 -8.33 -0.86 -11.39 -1.47 -6.49 -0.73 -7.72 2.45 -3.80 2.45 3.06 3.18 1.59 1.10 -2.45 -1.47 -2.57 -6.37 -3.31 -5.76 -0.86 0.12 0.86 -1.10 1.71 -2.82 1.96 -4.78 0.61 -6.12 3.55 -6.12 13.35 0 8.69 -0.12 8.94 -3.06 8.94 -3.06 0 -3.06 -0.12 -3.06 -10.29 0 -11.76 -1.47 -14.33 -6.74 -12 -2.94 1.35 -3.06 1.96 -3.06 11.88 l0 10.41 -3.80 0 c-3.80 0 -3.80 -0.12 -3.06 -4.53z"/>
  <path d="M802.12 900.70 c0 -2.45 0.61 -3.06 3.06 -3.06 2.45 0 3.06 0.61 3.06 3.06 0 2.45 -0.61 3.06 -3.06 3.06 -2.45 0 -3.06 -0.61 -3.06 -3.06z"/>
  <path d="M468.66 487.15 c-1.71 -6.98 -2.33 -20.57 -0.98 -20.57 0.86 0 1.35 2.82 1.35 7.96 0 5.76 0.49 7.96 1.59 7.96 1.10 0 1.47 1.22 1.10 3.67 -0.61 4.29 -2.20 4.78 -3.06 0.98z"/>
 </g>
</svg>